{
  "accessors": [
    {
      "bufferView": 2,
      "componentType": 5126,
      "count": 65532,
      "max": [
        0.18731699883937836,
        0.9881539940834045,
        0.17579799890518188
      ],
      "min": [
        -0.18133899569511414,
        -0.9781550168991089,
        0.0008159740245901048
      ],
      "type": "VEC3"
    },
    {
      "bufferView": 2,
      "byteOffset": 786384,
      "componentType": 5126,
      "count": 65532,
      "max": [
        0.9998711347579956,
        0.9999943375587463,
        0.9999992251396179
      ],
      "min": [
        -0.9998989105224609,
        -0.99965500831604,
        -0.9996973872184753
      ],
      "type": "VEC3"
    },
    {
      "bufferView": 3,
      "componentType": 5126,
      "count": 65532,
      "max": [
        0.9999167323112488,
        0.9999913573265076,
        0.9999760985374451,
        1.0
      ],
      "min": [
        -0.9999992251396179,
        -0.9999923706054688,
        -0.9998926520347595,
        -1.0
      ],
      "type": "VEC4"
    },
    {
      "bufferView": 1,
      "componentType": 5126,
      "count": 65532,
      "max": [
        0.8957269787788391,
        0.8953589797019958
      ],
      "min": [
        0.0009475609986111522,
        0.29370999336242676
      ],
      "type": "VEC2"
    },
    {
      "bufferView": 0,
      "componentType": 5125,
      "count": 353745,
      "type": "SCALAR"
    },
    {
      "bufferView": 2,
      "byteOffset": 1572768,
      "componentType": 5126,
      "count": 65532,
      "max": [
        0.17617100477218628,
        1.0,
        0.1330769956111908
      ],
      "min": [
        -0.17617100477218628,
        -1.0,
        -0.17579799890518188
      ],
      "type": "VEC3"
    },
    {
      "bufferView": 2,
      "byteOffset": 2359152,
      "componentType": 5126,
      "count": 65532,
      "max": [
        0.999909520149231,
        0.9999969005584717,
        0.9999988675117493
      ],
      "min": [
        -0.9999085664749146,
        -0.9999995231628418,
        -0.9999987483024597
      ],
      "type": "VEC3"
    },
    {
      "bufferView": 3,
      "byteOffset": 1048512,
      "componentType": 5126,
      "count": 65532,
      "max": [
        0.9999579191207886,
        0.999999463558197,
        0.9999797940254211,
        1.0
      ],
      "min": [
        -0.9999299645423889,
        -0.9999552369117737,
        -1.0,
        -1.0
      ],
      "type": "VEC4"
    },
    {
      "bufferView": 1,
      "byteOffset": 524256,
      "componentType": 5126,
      "count": 65532,
      "max": [
        0.9990519881248474,
        0.8923609852790833
      ],
      "min": [
        0.0009475609986111522,
        0.0009475609986111522
      ],
      "type": "VEC2"
    },
    {
      "bufferView": 0,
      "byteOffset": 1414980,
      "componentType": 5125,
      "count": 371343,
      "type": "SCALAR"
    },
    {
      "bufferView": 2,
      "byteOffset": 3145536,
      "componentType": 5126,
      "count": 59888,
      "max": [
        0.18898700177669525,
        0.9917629957199097,
        0.17517699301242828
      ],
      "min": [
        -0.18898700177669525,
        -0.9856500029563904,
        -0.0012850200291723013
      ],
      "type": "VEC3"
    },
    {
      "bufferView": 2,
      "byteOffset": 3864192,
      "componentType": 5126,
      "count": 59888,
      "max": [
        0.9999571442604065,
        0.9998622536659241,
        0.9999958872795105
      ],
      "min": [
        -0.9999052286148071,
        -0.9998475313186646,
        -0.9999036192893982
      ],
      "type": "VEC3"
    },
    {
      "bufferView": 3,
      "byteOffset": 2097024,
      "componentType": 5126,
      "count": 59888,
      "max": [
        0.9998290538787842,
        0.9999829530715942,
        0.9999678730964661,
        1.0
      ],
      "min": [
        -0.9998010993003845,
        -0.9999865293502808,
        -0.9999754428863525,
        -1.0
      ],
      "type": "VEC4"
    },
    {
      "bufferView": 1,
      "byteOffset": 1048512,
      "componentType": 5126,
      "count": 59888,
      "max": [
        0.8954499959945679,
        0.8946809768676758
      ],
      "min": [
        0.0037919299211353064,
        0.2867099940776825
      ],
      "type": "VEC2"
    },
    {
      "bufferView": 0,
      "byteOffset": 2900352,
      "componentType": 5125,
      "count": 319392,
      "type": "SCALAR"
    }
  ],
  "asset": {
    "extras": {
      "author": "Daniel Gryningstjerna (https://sketchfab.com/dangry)",
      "license": "CC-BY-4.0 (http://creativecommons.org/licenses/by/4.0/)",
      "source": "https://sketchfab.com/3d-models/octopus-tentacle-3227ddffbf3c4ade8825df70ccc17f2e",
      "title": "Octopus Tentacle"
    },
    "generator": "Sketchfab-12.65.0",
    "version": "2.0"
  },
  "bufferViews": [
    {
      "buffer": 0,
      "byteLength": 4177920,
      "name": "floatBufferViews",
      "target": 34963
    },
    {
      "buffer": 0,
      "byteLength": 1527616,
      "byteOffset": 4177920,
      "byteStride": 8,
      "name": "floatBufferViews",
      "target": 34962
    },
    {
      "buffer": 0,
      "byteLength": 4582848,
      "byteOffset": 5705536,
      "byteStride": 12,
      "name": "floatBufferViews",
      "target": 34962
    },
    {
      "buffer": 0,
      "byteLength": 3055232,
      "byteOffset": 10288384,
      "byteStride": 16,
      "name": "floatBufferViews",
      "target": 34962
    }
  ],
  "buffers": [
    {
      "byteLength": 13343616,
      "uri": "scene.bin"
    }
  ],
  "images": [
    {
      "uri": "textures/Material_001_baseColor.jpeg"
    },
    {
      "uri": "textures/Material_001_metallicRoughness.png"
    },
    {
      "uri": "textures/Material_001_normal.png"
    }
  ],
  "materials": [
    {
      "doubleSided": true,
      "name": "Material_001",
      "normalTexture": {
        "index": 2
      },
      "occlusionTexture": {
        "index": 1
      },
      "pbrMetallicRoughness": {
        "baseColorTexture": {
          "index": 0
        },
        "metallicRoughnessTexture": {
          "index": 1
        }
      }
    }
  ],
  "meshes": [
    {
      "name": "defaultMaterial",
      "primitives": [
        {
          "attributes": {
            "NORMAL": 1,
            "POSITION": 0,
            "TANGENT": 2,
            "TEXCOORD_0": 3
          },
          "indices": 4,
          "material": 0,
          "mode": 4
        }
      ]
    },
    {
      "name": "defaultMaterial",
      "primitives": [
        {
          "attributes": {
            "NORMAL": 6,
            "POSITION": 5,
            "TANGENT": 7,
            "TEXCOORD_0": 8
          },
          "indices": 9,
          "material": 0,
          "mode": 4
        }
      ]
    },
    {
      "name": "defaultMaterial",
      "primitives": [
        {
          "attributes": {
            "NORMAL": 11,
            "POSITION": 10,
            "TANGENT": 12,
            "TEXCOORD_0": 13
          },
          "indices": 14,
          "material": 0,
          "mode": 4
        }
      ]
    }
  ],
  "nodes": [
    {
      "children": [
        1
      ],
      "matrix": [
        1.0,
        0.0,
        0.0,
        0.0,
        0.0,
        2.220446049250313e-16,
        -1.0,
        0.0,
        0.0,
        1.0,
        2.220446049250313e-16,
        0.0,
        0.0,
        0.0,
        0.0,
        1.0
      ],
      "name": "Sketchfab_model"
    },
    {
      "children": [
        2
      ],
      "matrix": [
        1.0,
        0.0,
        0.0,
        0.0,
        0.0,
        -4.371139006309477e-08,
        0.999999999999999,
        0.0,
        0.0,
        -0.999999999999999,
        -4.371139006309477e-08,
        0.0,
        0.0,
        0.0,
        0.0,
        1.0
      ],
      "name": "Collada visual scene group"
    },
    {
      "children": [
        3,
        4,
        5
      ],
      "name": "Cube"
    },
    {
      "mesh": 0,
      "name": "defaultMaterial"
    },
    {
      "mesh": 1,
      "name": "defaultMaterial"
    },
    {
      "mesh": 2,
      "name": "defaultMaterial"
    }
  ],
  "samplers": [
    {
      "magFilter": 9729,
      "minFilter": 9987,
      "wrapS": 10497,
      "wrapT": 10497
    }
  ],
  "scene": 0,
  "scenes": [
    {
      "name": "Sketchfab_Scene",
      "nodes": [
        0
      ]
    }
  ],
  "textures": [
    {
      "sampler": 0,
      "source": 0
    },
    {
      "sampler": 0,
      "source": 1
    },
    {
      "sampler": 0,
      "source": 2
    }
  ]
}
